<?xml version="1.0" encoding="UTF-8"?>
<svg xmlns="http://www.w3.org/2000/svg" xmlns:xlink="http://www.w3.org/1999/xlink"
  width="521pt" height="87pt" viewBox="37 670 521 87">
<defs>
<mask id="mask-26">
<g filter="url(#filter-remove-color)">
<use xlink:href="#source-95" filter="url(#filter-color-to-alpha)" transform="matrix(1, 0, 0, 1, 303, 651.787231)"/>
</g>
</mask>

</defs>
<path fill-rule="nonzero" fill="rgb(0.39978%, 4.699707%, 8.198547%)" fill-opacity="1" d="M 528.6875 751.335938 L 62.8125 751.335938 C 56.328125 751.335938 51.070312 746.078125 51.070312 739.59375 L 51.070312 681.890625 C 51.070312 675.40625 56.328125 670.148438 62.8125 670.148438 L 528.6875 670.148438 C 535.171875 670.148438 540.429688 675.40625 540.429688 681.890625 L 540.429688 739.59375 C 540.429688 746.078125 535.171875 751.335938 528.6875 751.335938 "/>
<path fill="none" stroke-width="1.5" stroke-linecap="butt" stroke-linejoin="miter" stroke="rgb(13.699341%, 82.699585%, 100%)" stroke-opacity="1" stroke-miterlimit="10" d="M 0.0006875 0.001675 L 0.0006875 -23.588169 C 0.0006875 -25.728794 1.141312 -27.705356 2.996781 -28.779575 L 23.422562 -40.572544 C 25.278031 -41.642856 27.563187 -41.642856 29.418656 -40.572544 L 49.844437 -28.779575 C 51.699906 -27.705356 52.840531 -25.728794 52.840531 -23.588169 L 52.840531 0.001675 C 52.840531 2.1423 51.699906 4.118862 49.844437 5.189175 L 29.418656 16.982144 C 27.563187 18.056362 25.278031 18.056362 23.422562 16.982144 L 2.996781 5.189175 C 1.141312 4.118862 0.0006875 2.1423 0.0006875 0.001675 Z M 0.0006875 0.001675 " transform="matrix(1, 0, 0, -1, 67.304, 697.7673)"/>
<g mask="url(#mask-26)">
<use xlink:href="#source-94" transform="matrix(1, 0, 0, 1, 303, 651.787231)"/>
</g>
<path fill-rule="nonzero" fill="rgb(100%, 76.499939%, 0%)" fill-opacity="1" d="M 518.40625 721.371094 L 342.824219 721.371094 C 340.78125 721.371094 339.121094 719.714844 339.121094 717.671875 L 339.121094 692.355469 C 339.121094 690.3125 340.78125 688.652344 342.824219 688.652344 L 518.40625 688.652344 C 520.449219 688.652344 522.105469 690.3125 522.105469 692.355469 L 522.105469 717.671875 C 522.105469 719.714844 520.449219 721.371094 518.40625 721.371094 "/>
<path fill="none" stroke-width="1.5" stroke-linecap="round" stroke-linejoin="round" stroke="rgb(13.699341%, 82.699585%, 100%)" stroke-opacity="1" stroke-miterlimit="10" d="M -0.00043125 0.00021875 L -18.535587 -8.097437 L 0.194881 -16.390406 L 16.542538 -7.687281 Z M -0.00043125 0.00021875 " transform="matrix(1, 0, 0, -1, 94.8559, 695.7385)"/>
<path fill="none" stroke-width="1.5" stroke-linecap="round" stroke-linejoin="round" stroke="rgb(13.699341%, 82.699585%, 100%)" stroke-opacity="1" stroke-miterlimit="10" d="M 0.00100625 0.00115625 C 0.00100625 -1.108219 -0.901337 -2.010562 -2.010712 -2.010562 C -3.120087 -2.010562 -4.018525 -1.108219 -4.018525 0.00115625 C -4.018525 1.110531 -3.120087 2.008969 -2.010712 2.008969 C -0.901337 2.008969 0.00100625 1.110531 0.00100625 0.00115625 Z M 0.00100625 0.00115625 " transform="matrix(1, 0, 0, -1, 81.8154, 716.0285)"/>
<path fill="none" stroke-width="1.5" stroke-linecap="round" stroke-linejoin="round" stroke="rgb(13.699341%, 82.699585%, 100%)" stroke-opacity="1" stroke-miterlimit="10" d="M 0.00093125 0.00056875 L 0.00093125 -10.554119 C 0.00093125 -10.554119 9.036087 -18.265056 21.653275 -10.554119 C 21.70015 -7.183025 21.653275 0.98885 21.653275 0.98885 " transform="matrix(1, 0, 0, -1, 84.0186, 707.7076)"/>
<path fill="none" stroke-width="1.5" stroke-linecap="round" stroke-linejoin="round" stroke="rgb(13.699341%, 82.699585%, 100%)" stroke-opacity="1" stroke-miterlimit="10" d="M -0.0011125 -0.00189375 L -0.0011125 -8.275331 " transform="matrix(1, 0, 0, -1, 79.8058, 705.7442)"/>
</svg>